<?xml version="1.0" standalone="no"?>
<!DOCTYPE svg PUBLIC "-//W3C//DTD SVG 20010904//EN"
 "http://www.w3.org/TR/2001/REC-SVG-20010904/DTD/svg10.dtd">
<svg version="1.0" xmlns="http://www.w3.org/2000/svg"
 width="975.000000pt" height="1017.000000pt" viewBox="0 0 975.000000 1017.000000"
 preserveAspectRatio="xMidYMid meet">
<metadata>
Created by potrace 1.16, written by Peter Selinger 2001-2019
</metadata>
<g transform="translate(0.000000,1017.000000) scale(0.100000,-0.100000)"
fill="#000000" stroke="none">
<path d="M2775 9904 c-11 -2 -45 -9 -75 -15 -221 -44 -413 -237 -464 -466 -15
-65 -16 -447 -16 -4176 0 -4052 0 -4105 20 -4181 46 -180 165 -330 321 -404
106 -51 172 -66 279 -66 107 0 173 15 279 66 142 68 247 190 314 365 l22 58 3
1192 2 1193 163 2 162 3 3 37 3 38 -165 0 -166 0 0 2545 0 2545 166 0 165 0
-3 38 -3 37 -162 3 -163 2 0 319 c0 284 -2 326 -20 395 -46 180 -166 330 -323
405 -45 21 -103 44 -129 50 -55 13 -183 22 -213 15z m230 -105 c154 -47 289
-179 347 -340 l23 -64 0 -4145 0 -4145 -23 -64 c-93 -258 -355 -411 -612 -357
-196 41 -344 170 -412 357 l-23 64 0 4145 0 4145 24 65 c104 282 392 427 676
339z"/>
<path d="M2659 9519 c-9 -18 -7 -25 10 -43 17 -16 25 -18 39 -10 22 14 27 41
12 59 -18 22 -48 18 -61 -6z m49 -16 c-4 -22 -22 -20 -26 1 -2 10 3 16 13 16
10 0 15 -7 13 -17z"/>
<path d="M2785 9518 c-20 -18 -26 -32 -27 -66 -1 -56 31 -92 79 -92 32 0 73
28 73 50 0 16 -37 11 -44 -6 -4 -10 -15 -14 -33 -12 -53 6 -58 101 -6 114 18
5 30 2 38 -10 14 -18 31 -21 40 -6 10 16 -33 50 -64 50 -17 0 -42 -10 -56 -22z"/>
<path d="M3008 8749 c-22 -23 -23 -43 -3 -35 12 4 15 -4 15 -44 0 -38 4 -50
15 -50 12 0 15 15 15 75 0 80 -9 91 -42 54z"/>
<path d="M3106 8754 c-19 -19 -22 -104 -4 -122 7 -7 21 -12 33 -12 33 0 45 20
45 71 0 48 -18 79 -45 79 -7 0 -21 -7 -29 -16z m42 -61 c-3 -55 -21 -65 -26
-15 -4 39 3 62 18 62 7 0 10 -18 8 -47z"/>
<path d="M3216 8754 c-18 -18 -21 -85 -6 -115 13 -23 53 -25 70 -4 20 24 16
106 -6 122 -23 17 -39 16 -58 -3z m44 -59 c0 -33 -4 -45 -15 -45 -11 0 -15 11
-15 38 0 21 3 42 7 45 16 16 23 4 23 -38z"/>
<path d="M2477 8703 c-19 -19 4 -23 123 -23 109 0 130 2 130 15 0 13 -20 15
-123 15 -68 0 -127 -3 -130 -7z"/>
<path d="M2630 8605 c0 -11 12 -15 50 -15 38 0 50 4 50 15 0 11 -12 15 -50 15
-38 0 -50 -4 -50 -15z"/>
<path d="M2623 8518 c2 -8 22 -13 52 -13 30 0 50 5 53 13 3 9 -12 12 -53 12
-41 0 -56 -3 -52 -12z"/>
<path d="M2626 8435 c-4 -12 5 -15 49 -15 42 0 55 3 55 15 0 11 -12 15 -49 15
-34 0 -51 -4 -55 -15z"/>
<path d="M2627 8354 c-14 -15 7 -24 54 -24 37 0 49 4 49 15 0 11 -12 15 -48
15 -27 0 -52 -3 -55 -6z"/>
<path d="M2626 8265 c-4 -12 5 -15 49 -15 42 0 55 3 55 15 0 11 -12 15 -49 15
-34 0 -51 -4 -55 -15z"/>
<path d="M2992 8238 c-30 -30 -2 -98 34 -84 10 4 14 2 11 -6 -2 -7 -16 -12
-31 -10 -28 3 -33 -7 -14 -26 34 -34 78 1 78 63 0 62 -44 97 -78 63z m46 -41
c2 -10 -3 -17 -12 -17 -18 0 -29 16 -21 31 9 14 29 6 33 -14z"/>
<path d="M3100 8231 c-5 -11 -10 -36 -10 -56 0 -48 16 -75 43 -75 34 0 47 19
47 68 0 56 -14 82 -45 82 -14 0 -29 -8 -35 -19z m50 -56 c0 -33 -4 -45 -15
-45 -11 0 -15 12 -15 45 0 33 4 45 15 45 11 0 15 -12 15 -45z"/>
<path d="M2480 8175 c0 -13 21 -15 125 -15 104 0 125 2 125 15 0 13 -21 15
-125 15 -104 0 -125 -2 -125 -15z"/>
<path d="M2630 8085 c0 -11 12 -15 50 -15 38 0 50 4 50 15 0 11 -12 15 -50 15
-38 0 -50 -4 -50 -15z"/>
<path d="M2627 8013 c-17 -16 -3 -23 48 -23 42 0 55 3 55 15 0 11 -12 15 -48
15 -27 0 -52 -3 -55 -7z"/>
<path d="M2627 7924 c-14 -15 7 -24 54 -24 37 0 49 4 49 15 0 11 -12 15 -48
15 -27 0 -52 -3 -55 -6z"/>
<path d="M2635 7840 c-12 -19 10 -32 51 -28 27 2 39 8 39 18 0 19 -79 27 -90
10z"/>
<path d="M2626 7745 c-4 -12 5 -15 49 -15 42 0 55 3 55 15 0 11 -12 15 -49 15
-34 0 -51 -4 -55 -15z"/>
<path d="M2993 7718 c-6 -7 -11 -37 -11 -66 -1 -46 2 -54 22 -63 17 -8 29 -8
44 0 18 9 21 19 19 64 -3 62 -11 77 -41 77 -13 0 -28 -6 -33 -12z m47 -29 c0
-5 -7 -9 -15 -9 -15 0 -20 12 -9 23 8 8 24 -1 24 -14z m0 -59 c0 -11 -7 -20
-15 -20 -8 0 -15 9 -15 20 0 11 7 20 15 20 8 0 15 -9 15 -20z"/>
<path d="M3102 7718 c-18 -18 -15 -103 4 -122 37 -37 74 -5 74 63 0 51 -12 71
-45 71 -12 0 -26 -5 -33 -12z m48 -63 c0 -33 -4 -45 -15 -45 -11 0 -15 12 -15
45 0 33 4 45 15 45 11 0 15 -12 15 -45z"/>
<path d="M2480 7655 c0 -13 21 -15 125 -15 104 0 125 2 125 15 0 13 -21 15
-125 15 -104 0 -125 -2 -125 -15z"/>
<path d="M2631 7576 c-17 -20 2 -29 55 -24 27 2 39 8 39 18 0 22 -77 26 -94 6z"/>
<path d="M2622 7488 c3 -8 26 -14 56 -16 42 -2 52 0 52 12 0 13 -12 16 -56 16
-40 0 -55 -4 -52 -12z"/>
<path d="M2626 7395 c4 -11 21 -15 55 -15 37 0 49 4 49 15 0 12 -13 15 -55 15
-44 0 -53 -3 -49 -15z"/>
<path d="M2627 7324 c-14 -15 7 -24 54 -24 37 0 49 4 49 15 0 11 -12 15 -48
15 -27 0 -52 -3 -55 -6z"/>
<path d="M2627 7234 c-14 -15 7 -24 54 -24 37 0 49 4 49 15 0 11 -12 15 -48
15 -27 0 -52 -3 -55 -6z"/>
<path d="M2980 7195 c0 -9 9 -15 23 -15 l24 0 -18 -52 c-10 -29 -16 -55 -14
-57 10 -9 35 10 35 26 0 10 9 35 20 56 11 20 20 41 20 47 0 5 -20 10 -45 10
-33 0 -45 -4 -45 -15z"/>
<path d="M3102 7198 c-16 -16 -16 -100 0 -116 17 -17 65 -15 72 4 10 27 7 99
-6 112 -7 7 -21 12 -33 12 -12 0 -26 -5 -33 -12z m46 -64 c-2 -22 -7 -39 -13
-39 -12 0 -19 60 -10 83 10 28 27 -3 23 -44z"/>
<path d="M2477 7146 c-5 -11 15 -15 108 -21 119 -8 150 -4 143 18 -7 19 -244
23 -251 3z"/>
<path d="M2626 7055 c-4 -12 5 -15 49 -15 42 0 55 3 55 15 0 11 -12 15 -49 15
-34 0 -51 -4 -55 -15z"/>
<path d="M2626 6965 c-4 -12 5 -15 49 -15 42 0 55 3 55 15 0 11 -12 15 -49 15
-34 0 -51 -4 -55 -15z"/>
<path d="M2625 6880 c-3 -6 0 -13 8 -16 25 -9 90 0 95 14 5 15 -94 17 -103 2z"/>
<path d="M2627 6804 c-14 -15 7 -24 54 -24 37 0 49 4 49 15 0 11 -12 15 -48
15 -27 0 -52 -3 -55 -6z"/>
<path d="M2627 6714 c-14 -15 7 -24 54 -24 37 0 49 4 49 15 0 11 -12 15 -48
15 -27 0 -52 -3 -55 -6z"/>
<path d="M3001 6683 c-16 -11 -21 -25 -21 -62 0 -56 15 -74 57 -69 24 3 28 8
31 38 4 37 -18 63 -44 53 -8 -3 -14 0 -14 5 0 18 20 25 35 12 9 -7 15 -8 20 0
16 27 -33 45 -64 23z m42 -76 c3 -8 1 -20 -4 -28 -11 -19 -34 3 -26 25 8 20
23 21 30 3z"/>
<path d="M3112 6684 c-17 -12 -22 -25 -22 -63 0 -52 12 -71 46 -71 33 0 46 23
42 76 -4 59 -31 83 -66 58z m36 -70 c-2 -22 -7 -39 -13 -39 -12 0 -19 60 -10
83 10 28 27 -3 23 -44z"/>
<path d="M2477 6626 c-8 -20 50 -28 163 -24 68 2 85 6 85 18 0 22 -240 28
-248 6z"/>
<path d="M2627 6543 c-17 -16 -3 -23 48 -23 42 0 55 3 55 15 0 11 -12 15 -48
15 -27 0 -52 -3 -55 -7z"/>
<path d="M2626 6445 c4 -11 21 -15 55 -15 37 0 49 4 49 15 0 12 -13 15 -55 15
-44 0 -53 -3 -49 -15z"/>
<path d="M2627 6374 c-14 -15 7 -24 54 -24 37 0 49 4 49 15 0 11 -12 15 -48
15 -27 0 -52 -3 -55 -6z"/>
<path d="M2626 6275 c-4 -12 5 -15 49 -15 42 0 55 3 55 15 0 11 -12 15 -49 15
-34 0 -51 -4 -55 -15z"/>
<path d="M2630 6190 c0 -5 23 -10 50 -10 28 0 50 5 50 10 0 6 -22 10 -50 10
-27 0 -50 -4 -50 -10z"/>
<path d="M3018 6173 c-19 -3 -28 -10 -28 -23 0 -10 -3 -26 -7 -36 -5 -14 -2
-16 21 -12 29 6 43 -10 32 -37 -5 -13 -9 -13 -25 -3 -25 15 -38 4 -21 -17 16
-19 54 -19 69 -1 19 23 9 70 -16 81 -13 5 -23 13 -23 17 0 4 10 7 23 5 13 -1
22 3 22 12 0 17 -10 19 -47 14z"/>
<path d="M3106 6164 c-19 -19 -22 -104 -4 -122 7 -7 21 -12 33 -12 33 0 45 20
45 71 0 48 -18 79 -45 79 -7 0 -21 -7 -29 -16z m42 -61 c-3 -55 -21 -65 -26
-15 -4 39 3 62 18 62 7 0 10 -18 8 -47z"/>
<path d="M2480 6105 c0 -13 21 -15 125 -15 104 0 125 2 125 15 0 13 -21 15
-125 15 -104 0 -125 -2 -125 -15z"/>
<path d="M2623 6015 c0 -11 13 -15 54 -15 40 0 53 4 53 15 0 11 -13 15 -53 15
-41 0 -54 -4 -54 -15z"/>
<path d="M2625 5940 c-12 -20 11 -31 56 -28 31 2 44 7 44 18 0 19 -89 27 -100
10z"/>
<path d="M2627 5853 c-17 -16 -3 -23 48 -23 42 0 55 3 55 15 0 11 -12 15 -48
15 -27 0 -52 -3 -55 -7z"/>
<path d="M2626 5755 c4 -11 21 -15 55 -15 37 0 49 4 49 15 0 12 -13 15 -55 15
-44 0 -53 -3 -49 -15z"/>
<path d="M2620 5670 c0 -5 25 -10 55 -10 30 0 55 5 55 10 0 6 -25 10 -55 10
-30 0 -55 -4 -55 -10z"/>
<path d="M3001 5612 c-39 -61 -39 -72 -1 -72 20 0 30 -5 30 -15 0 -8 7 -15 15
-15 8 0 15 7 15 15 0 8 5 15 10 15 6 0 10 7 10 15 0 8 -4 15 -10 15 -5 0 -10
20 -10 45 0 60 -19 59 -59 -3z m25 -39 c-10 -10 -19 5 -10 18 6 11 8 11 12 0
2 -7 1 -15 -2 -18z"/>
<path d="M3106 5644 c-19 -19 -22 -104 -4 -122 7 -7 21 -12 33 -12 32 0 45 20
45 68 0 74 -35 105 -74 66z m44 -59 c0 -33 -4 -45 -15 -45 -11 0 -15 12 -15
45 0 33 4 45 15 45 11 0 15 -12 15 -45z"/>
<path d="M2470 5585 c0 -13 21 -15 130 -15 109 0 130 2 130 15 0 13 -21 15
-130 15 -109 0 -130 -2 -130 -15z"/>
<path d="M2627 5504 c-14 -15 7 -24 54 -24 37 0 49 4 49 15 0 11 -12 15 -48
15 -27 0 -52 -3 -55 -6z"/>
<path d="M2626 5415 c-4 -12 5 -15 49 -15 42 0 55 3 55 15 0 11 -12 15 -49 15
-34 0 -51 -4 -55 -15z"/>
<path d="M2622 5328 c3 -8 26 -14 56 -16 42 -2 52 0 52 12 0 13 -12 16 -56 16
-40 0 -55 -4 -52 -12z"/>
<path d="M2623 5238 c2 -8 22 -13 52 -13 30 0 50 5 53 13 3 9 -12 12 -53 12
-41 0 -56 -3 -52 -12z"/>
<path d="M2627 5164 c-14 -15 7 -24 54 -24 37 0 49 4 49 15 0 11 -12 15 -48
15 -27 0 -52 -3 -55 -6z"/>
<path d="M2990 5125 c-17 -21 -4 -32 20 -17 23 14 36 -1 15 -18 -19 -16 -19
-30 0 -30 8 0 15 -9 15 -20 0 -22 -20 -26 -38 -8 -15 15 -26 4 -18 -17 15 -40
86 -24 86 19 0 14 -5 28 -10 31 -8 5 -7 11 0 20 8 10 8 19 0 34 -13 25 -52 28
-70 6z"/>
<path d="M3102 5128 c-18 -18 -15 -103 4 -122 37 -37 74 -5 74 63 0 51 -12 71
-45 71 -12 0 -26 -5 -33 -12z m48 -64 c0 -32 -4 -44 -15 -44 -11 0 -15 11 -15
43 0 24 3 47 6 50 14 14 24 -6 24 -49z"/>
<path d="M2472 5068 c3 -9 41 -14 131 -16 109 -2 127 0 127 13 0 13 -20 15
-131 15 -100 0 -130 -3 -127 -12z"/>
<path d="M2622 4979 c2 -6 7 -10 11 -10 4 1 27 1 52 1 25 0 45 5 45 10 0 6
-25 10 -56 10 -35 0 -54 -4 -52 -11z"/>
<path d="M2626 4895 c-4 -12 5 -15 49 -15 42 0 55 3 55 15 0 11 -12 15 -49 15
-34 0 -51 -4 -55 -15z"/>
<path d="M2630 4805 c0 -11 12 -15 50 -15 38 0 50 4 50 15 0 11 -12 15 -50 15
-38 0 -50 -4 -50 -15z"/>
<path d="M2770 3240 c0 -1458 -1 -1541 -17 -1546 -104 -34 -187 -104 -230
-193 -23 -47 -27 -70 -28 -141 0 -77 3 -92 33 -152 34 -70 86 -123 157 -161
34 -19 57 -22 145 -22 91 0 112 3 155 24 67 33 131 100 163 169 38 83 37 192
-3 280 -35 77 -114 154 -186 179 l-49 18 0 1542 0 1543 -70 0 -70 0 0 -1540z"/>
<path d="M2626 4725 c-7 -20 11 -27 60 -23 27 2 39 8 39 18 0 22 -90 27 -99 5z"/>
<path d="M2627 4644 c-14 -15 7 -24 54 -24 37 0 49 4 49 15 0 11 -12 15 -48
15 -27 0 -52 -3 -55 -6z"/>
<path d="M2993 4614 c-17 -7 -17 -34 0 -34 7 0 18 5 25 12 9 9 13 7 18 -5 4
-12 -6 -31 -31 -58 -42 -47 -36 -60 28 -57 41 2 52 26 16 35 l-20 6 21 22 c14
15 20 33 18 51 -2 24 -8 29 -33 31 -16 1 -36 0 -42 -3z"/>
<path d="M3102 4608 c-7 -7 -12 -33 -12 -59 0 -38 5 -51 22 -63 28 -20 33 -20
52 0 19 19 22 104 4 122 -7 7 -21 12 -33 12 -12 0 -26 -5 -33 -12z m46 -64
c-2 -22 -7 -39 -13 -39 -12 0 -19 60 -10 83 10 28 27 -3 23 -44z"/>
<path d="M2472 4548 c3 -9 41 -14 131 -16 109 -2 127 0 127 13 0 13 -20 15
-131 15 -100 0 -130 -3 -127 -12z"/>
<path d="M2626 4465 c-4 -12 5 -15 49 -15 42 0 55 3 55 15 0 11 -12 15 -49 15
-34 0 -51 -4 -55 -15z"/>
<path d="M2627 4383 c-17 -16 -3 -23 48 -23 42 0 55 3 55 15 0 11 -12 15 -48
15 -27 0 -52 -3 -55 -7z"/>
<path d="M2625 4290 c-3 -6 0 -13 8 -16 25 -9 90 0 95 14 5 15 -94 17 -103 2z"/>
<path d="M2627 4214 c-14 -15 7 -24 54 -24 37 0 49 4 49 15 0 11 -12 15 -48
15 -27 0 -52 -3 -55 -6z"/>
<path d="M2626 4115 c4 -11 21 -15 55 -15 37 0 49 4 49 15 0 12 -13 15 -55 15
-44 0 -53 -3 -49 -15z"/>
<path d="M3007 4082 c-27 -28 -27 -53 0 -31 11 9 13 2 13 -40 0 -39 4 -51 15
-51 12 0 15 15 15 75 0 41 -4 75 -8 75 -5 0 -20 -13 -35 -28z"/>
<path d="M3102 4088 c-16 -16 -16 -100 0 -116 7 -7 21 -12 33 -12 32 0 45 20
45 70 0 50 -13 70 -45 70 -12 0 -26 -5 -33 -12z m46 -64 c-2 -22 -7 -39 -13
-39 -12 0 -19 60 -10 83 10 28 27 -3 23 -44z"/>
<path d="M2475 4039 c-15 -23 16 -30 131 -27 98 2 119 6 119 18 0 12 -21 15
-122 18 -81 2 -124 -1 -128 -9z"/>
<path d="M2627 3953 c-17 -16 -3 -23 48 -23 42 0 55 3 55 15 0 11 -12 15 -48
15 -27 0 -52 -3 -55 -7z"/>
<path d="M2630 3855 c0 -11 12 -15 50 -15 38 0 50 4 50 15 0 11 -12 15 -50 15
-38 0 -50 -4 -50 -15z"/>
<path d="M2633 3782 c-7 -4 -9 -13 -4 -20 12 -19 96 -12 96 8 0 17 -71 26 -92
12z"/>
<path d="M2623 3685 c0 -11 13 -15 54 -15 40 0 53 4 53 15 0 11 -13 15 -53 15
-41 0 -54 -4 -54 -15z"/>
<path d="M2626 3595 c4 -11 21 -15 55 -15 37 0 49 4 49 15 0 12 -13 15 -55 15
-44 0 -53 -3 -49 -15z"/>
<path d="M2996 3574 c-19 -19 -22 -104 -4 -122 18 -18 56 -14 68 7 17 32 12
96 -8 114 -23 21 -36 21 -56 1z m39 -62 c0 -59 -19 -57 -23 2 -2 36 0 47 10
44 8 -3 13 -21 13 -46z"/>
<path d="M2477 3523 c-19 -19 4 -23 123 -23 109 0 130 2 130 15 0 13 -20 15
-123 15 -68 0 -127 -3 -130 -7z"/>
<path d="M2626 3425 c4 -11 21 -15 55 -15 37 0 49 4 49 15 0 12 -13 15 -55 15
-44 0 -53 -3 -49 -15z"/>
<path d="M2620 3340 c0 -23 100 -26 108 -2 3 8 -12 12 -52 12 -31 0 -56 -4
-56 -10z"/>
<path d="M2630 3255 c0 -11 12 -15 50 -15 38 0 50 4 50 15 0 11 -12 15 -50 15
-38 0 -50 -4 -50 -15z"/>
<path d="M2626 3165 c4 -11 21 -15 55 -15 37 0 49 4 49 15 0 12 -13 15 -55 15
-44 0 -53 -3 -49 -15z"/>
<path d="M2620 3080 c0 -23 100 -26 108 -2 3 8 -12 12 -52 12 -31 0 -56 -4
-56 -10z"/>
<path d="M3007 3042 c-21 -23 -22 -33 -2 -26 12 5 15 -3 15 -40 0 -34 4 -46
15 -46 12 0 15 14 15 65 0 70 -11 82 -43 47z"/>
<path d="M3100 3041 c-24 -47 -1 -121 38 -121 21 0 42 32 42 66 0 48 -16 74
-45 74 -14 0 -29 -8 -35 -19z m54 -25 c7 -29 -10 -80 -24 -71 -11 7 -14 88 -4
98 10 10 21 -1 28 -27z"/>
<path d="M2470 2995 c0 -13 21 -15 130 -15 109 0 130 2 130 15 0 13 -21 15
-130 15 -109 0 -130 -2 -130 -15z"/>
<path d="M2627 2914 c-14 -15 7 -24 54 -24 37 0 49 4 49 15 0 11 -12 15 -48
15 -27 0 -52 -3 -55 -6z"/>
<path d="M2620 2820 c0 -5 25 -10 55 -10 30 0 55 5 55 10 0 6 -25 10 -55 10
-30 0 -55 -4 -55 -10z"/>
<path d="M2623 2735 c0 -11 13 -15 54 -15 40 0 53 4 53 15 0 11 -13 15 -53 15
-41 0 -54 -4 -54 -15z"/>
<path d="M2630 2645 c0 -11 12 -15 50 -15 38 0 50 4 50 15 0 11 -12 15 -50 15
-38 0 -50 -4 -50 -15z"/>
<path d="M2627 2574 c-14 -15 7 -24 54 -24 37 0 49 4 49 15 0 11 -12 15 -48
15 -27 0 -52 -3 -55 -6z"/>
<path d="M2994 2536 c-24 -18 -10 -35 15 -19 41 26 42 -19 1 -57 -41 -39 -38
-50 15 -50 25 0 45 5 45 10 0 6 -12 10 -26 10 l-26 0 26 31 c31 36 33 64 7 79
-26 13 -33 13 -57 -4z"/>
<path d="M3106 2528 c-19 -27 -21 -89 -4 -106 21 -21 65 -15 72 11 23 85 -27
154 -68 95z m48 -32 c7 -29 -10 -80 -24 -71 -11 7 -14 88 -4 98 10 10 21 -1
28 -27z"/>
<path d="M2472 2478 c3 -9 41 -14 131 -16 109 -2 127 0 127 13 0 13 -20 15
-131 15 -100 0 -130 -3 -127 -12z"/>
<path d="M2620 2390 c0 -5 25 -10 55 -10 30 0 55 5 55 10 0 6 -25 10 -55 10
-30 0 -55 -4 -55 -10z"/>
<path d="M2626 2305 c-4 -12 5 -15 49 -15 42 0 55 3 55 15 0 11 -12 15 -49 15
-34 0 -51 -4 -55 -15z"/>
<path d="M2630 2215 c0 -11 12 -15 50 -15 38 0 50 4 50 15 0 11 -12 15 -50 15
-38 0 -50 -4 -50 -15z"/>
<path d="M2657 2143 c-56 -6 -41 -28 19 -28 37 0 49 4 49 15 0 16 -12 19 -68
13z"/>
<path d="M2622 2048 c3 -8 26 -14 56 -16 42 -2 52 0 52 12 0 13 -12 16 -56 16
-40 0 -55 -4 -52 -12z"/>
<path d="M2990 2015 c-17 -20 -5 -32 15 -15 12 10 19 10 27 2 9 -9 7 -17 -8
-33 -10 -13 -14 -19 -8 -16 15 9 38 -18 29 -33 -4 -7 -19 -9 -37 -5 -23 6 -29
4 -26 -6 7 -20 68 -18 81 2 6 9 7 24 2 35 -4 11 -7 30 -6 43 4 38 -44 56 -69
26z"/>
<path d="M3106 2014 c-18 -18 -21 -76 -6 -105 6 -11 21 -19 35 -19 29 0 45 26
45 74 0 35 -21 66 -45 66 -7 0 -21 -7 -29 -16z m47 -33 c8 -37 -2 -71 -19 -71
-10 0 -14 14 -14 50 0 56 23 71 33 21z"/>
<path d="M2480 1955 c0 -13 21 -15 125 -15 104 0 125 2 125 15 0 13 -21 15
-125 15 -104 0 -125 -2 -125 -15z"/>
<path d="M6815 9904 c-11 -2 -45 -9 -75 -15 -199 -39 -382 -208 -452 -416 -21
-64 -23 -86 -26 -410 l-3 -343 -162 -2 -162 -3 -3 -37 -3 -38 165 0 166 0 0
-2545 0 -2545 -166 0 -165 0 3 -37 3 -38 163 -3 162 -2 0 -1164 c0 -1125 1
-1165 20 -1240 46 -181 164 -329 322 -404 105 -51 171 -66 278 -66 107 0 173
15 279 66 142 68 247 190 314 365 l22 58 3 4120 c2 3059 0 4138 -8 4190 -7 44
-29 105 -57 164 -61 127 -155 222 -276 280 -45 21 -103 44 -129 50 -55 13
-183 22 -213 15z m230 -105 c154 -47 289 -179 347 -340 l23 -64 0 -4145 0
-4145 -23 -64 c-67 -185 -217 -316 -407 -356 -88 -18 -122 -18 -210 0 -190 40
-340 171 -407 356 l-23 64 0 4145 0 4145 23 64 c102 281 393 428 677 340z"/>
<path d="M6780 9521 c-12 -23 -5 -47 16 -55 22 -8 54 11 54 32 0 41 -51 57
-70 23z m46 -12 c10 -17 -13 -36 -27 -22 -12 12 -4 33 11 33 5 0 12 -5 16 -11z"/>
<path d="M6880 9450 c0 -83 1 -90 20 -90 16 0 20 7 20 35 0 35 11 42 58 36 6
-1 12 5 12 14 0 15 -10 19 -44 15 -10 -1 -22 4 -26 11 -15 23 1 39 41 39 28 0
39 4 39 15 0 12 -13 15 -60 15 l-60 0 0 -90z"/>
<path d="M6463 8983 c-17 -6 -17 -33 0 -33 7 0 18 5 25 12 9 9 13 7 18 -5 4
-12 -6 -31 -31 -58 -20 -22 -35 -42 -33 -44 10 -10 92 -8 96 3 2 7 -6 12 -23
12 l-27 0 26 31 c28 33 33 58 14 77 -12 12 -43 15 -65 5z"/>
<path d="M6570 8975 c-19 -23 -1 -39 21 -19 17 15 19 15 25 0 4 -10 -7 -30
-31 -57 -20 -22 -35 -43 -32 -45 9 -9 51 -13 74 -8 31 8 29 24 -3 24 l-26 0
26 31 c28 33 33 58 14 77 -16 16 -53 15 -68 -3z"/>
<path d="M6682 8978 c-18 -18 -15 -103 4 -122 37 -37 74 -5 74 63 0 51 -12 71
-45 71 -12 0 -26 -5 -33 -12z m48 -64 c0 -32 -4 -44 -15 -44 -11 0 -15 11 -15
43 0 24 3 47 6 50 14 14 24 -6 24 -49z"/>
<path d="M6970 8915 c0 -13 21 -15 125 -15 104 0 125 2 125 15 0 13 -21 15
-125 15 -104 0 -125 -2 -125 -15z"/>
<path d="M6983 8867 c-7 -12 -2 -15 37 -19 25 -2 35 1 35 11 0 15 -63 22 -72
8z"/>
<path d="M6980 8805 c0 -11 11 -15 40 -15 29 0 40 4 40 15 0 11 -11 15 -40 15
-29 0 -40 -4 -40 -15z"/>
<path d="M6980 8745 c0 -11 11 -15 40 -15 29 0 40 4 40 15 0 11 -11 15 -40 15
-29 0 -40 -4 -40 -15z"/>
<path d="M6458 8688 c-22 -22 -22 -23 -3 -27 10 -2 21 2 23 8 5 14 32 14 32 0
0 -6 -16 -29 -35 -50 -19 -22 -35 -44 -35 -49 0 -6 23 -10 50 -10 38 0 50 4
50 15 0 10 -10 15 -26 15 l-27 0 27 25 c29 27 33 56 10 79 -21 22 -40 20 -66
-6z"/>
<path d="M6588 8679 c-29 -27 -30 -30 -10 -26 20 5 22 2 22 -44 0 -37 4 -49
15 -49 12 0 15 15 15 75 0 41 -2 75 -5 75 -3 0 -19 -14 -37 -31z"/>
<path d="M6682 8688 c-7 -7 -12 -33 -12 -58 0 -50 13 -70 45 -70 32 0 45 20
45 70 0 50 -13 70 -45 70 -12 0 -26 -5 -33 -12z m46 -64 c-2 -22 -7 -39 -13
-39 -12 0 -19 60 -10 83 10 28 27 -3 23 -44z"/>
<path d="M6980 8685 c0 -11 11 -15 40 -15 29 0 40 4 40 15 0 11 -11 15 -40 15
-29 0 -40 -4 -40 -15z"/>
<path d="M6980 8640 c-29 -19 11 -30 112 -30 105 0 128 5 128 26 0 11 -23 14
-112 14 -62 0 -120 -5 -128 -10z"/>
<path d="M6980 8575 c0 -11 11 -15 40 -15 29 0 40 4 40 15 0 11 -11 15 -40 15
-29 0 -40 -4 -40 -15z"/>
<path d="M6980 8515 c0 -11 11 -15 40 -15 29 0 40 4 40 15 0 11 -11 15 -40 15
-29 0 -40 -4 -40 -15z"/>
<path d="M6980 8466 c0 -18 42 -31 66 -22 27 10 9 31 -29 34 -28 2 -37 -1 -37
-12z"/>
<path d="M6462 8408 c-14 -14 -16 -38 -3 -38 6 0 13 5 16 10 8 14 35 13 35 -1
0 -6 -16 -29 -35 -50 -19 -22 -35 -44 -35 -49 0 -6 23 -10 50 -10 38 0 50 4
50 15 0 10 -10 15 -27 15 l-27 0 27 28 c41 43 32 92 -18 92 -12 0 -26 -5 -33
-12z"/>
<path d="M6570 8401 c-14 -27 -13 -104 2 -119 18 -18 56 -14 68 7 15 30 12 97
-6 115 -21 22 -51 20 -64 -3z m48 -59 c2 -33 0 -42 -12 -42 -12 0 -16 11 -16
46 0 59 24 55 28 -4z"/>
<path d="M6686 8404 c-19 -19 -22 -104 -4 -122 7 -7 21 -12 33 -12 33 0 45 20
45 75 0 28 -5 56 -12 63 -17 17 -44 15 -62 -4z m44 -59 c0 -33 -4 -45 -15 -45
-11 0 -15 12 -15 45 0 33 4 45 15 45 11 0 15 -12 15 -45z"/>
<path d="M6980 8405 c0 -11 11 -15 40 -15 29 0 40 4 40 15 0 11 -11 15 -40 15
-29 0 -40 -4 -40 -15z"/>
<path d="M6970 8345 c0 -13 21 -15 125 -15 104 0 125 2 125 15 0 13 -21 15
-125 15 -104 0 -125 -2 -125 -15z"/>
<path d="M6980 8285 c0 -11 11 -15 40 -15 29 0 40 4 40 15 0 11 -11 15 -40 15
-29 0 -40 -4 -40 -15z"/>
<path d="M6990 8241 c-19 -13 -12 -18 30 -23 26 -2 35 1 35 12 0 18 -43 25
-65 11z"/>
<path d="M6980 8175 c0 -11 11 -15 40 -15 29 0 40 4 40 15 0 11 -11 15 -40 15
-29 0 -40 -4 -40 -15z"/>
<path d="M6473 8111 c-29 -24 -30 -45 -3 -36 18 6 20 2 20 -45 0 -37 4 -50 13
-48 8 3 13 30 15 76 3 79 -4 87 -45 53z"/>
<path d="M6574 8122 c-6 -4 -13 -17 -17 -30 -7 -29 25 -65 49 -55 12 4 15 2
12 -8 -3 -9 -16 -13 -33 -11 -29 3 -31 -14 -3 -32 12 -7 23 -5 42 7 22 15 26
25 26 65 0 27 -5 53 -12 60 -13 13 -47 16 -64 4z m43 -46 c-4 -9 -11 -16 -17
-16 -11 0 -14 33 -3 43 11 11 26 -10 20 -27z"/>
<path d="M6682 8118 c-13 -13 -16 -96 -4 -114 4 -6 17 -14 28 -18 34 -10 54
17 54 73 0 51 -12 71 -45 71 -12 0 -26 -5 -33 -12z m48 -64 c0 -32 -4 -44 -12
-42 -14 5 -23 61 -14 85 11 27 26 2 26 -43z"/>
<path d="M6980 8115 c0 -11 11 -15 40 -15 29 0 40 4 40 15 0 11 -11 15 -40 15
-29 0 -40 -4 -40 -15z"/>
<path d="M6970 8055 c0 -13 21 -15 125 -15 104 0 125 2 125 15 0 13 -21 15
-125 15 -104 0 -125 -2 -125 -15z"/>
<path d="M6993 8013 c-7 -2 -13 -11 -13 -19 0 -17 65 -20 76 -3 12 20 -31 36
-63 22z"/>
<path d="M6980 7945 c0 -11 11 -15 40 -15 29 0 40 4 40 15 0 11 -11 15 -40 15
-29 0 -40 -4 -40 -15z"/>
<path d="M6980 7885 c0 -11 11 -15 40 -15 29 0 40 4 40 15 0 11 -11 15 -40 15
-29 0 -40 -4 -40 -15z"/>
<path d="M6477 7825 c-32 -29 -37 -51 -7 -35 19 10 20 8 20 -40 0 -38 4 -50
15 -50 12 0 15 14 15 69 0 39 -3 72 -8 74 -4 3 -19 -5 -35 -18z"/>
<path d="M6578 7839 c-19 -10 -23 -120 -5 -131 23 -14 65 -9 71 10 6 20 2 109
-6 117 -10 11 -44 13 -60 4z m42 -34 c0 -8 -7 -15 -15 -15 -8 0 -15 7 -15 15
0 8 7 15 15 15 8 0 15 -7 15 -15z m-3 -69 c-4 -9 -11 -16 -17 -16 -11 0 -14
33 -3 43 11 11 26 -10 20 -27z"/>
<path d="M6691 7834 c-16 -12 -21 -26 -21 -63 0 -51 12 -71 45 -71 12 0 26 5
33 12 13 13 16 96 4 114 -13 19 -39 23 -61 8z m37 -70 c-2 -22 -7 -39 -13 -39
-12 0 -19 60 -10 83 10 28 27 -3 23 -44z"/>
<path d="M6980 7825 c0 -11 11 -15 40 -15 29 0 40 4 40 15 0 11 -11 15 -40 15
-29 0 -40 -4 -40 -15z"/>
<path d="M6970 7775 c0 -13 21 -15 125 -15 104 0 125 2 125 15 0 13 -21 15
-125 15 -104 0 -125 -2 -125 -15z"/>
<path d="M6980 7715 c0 -11 11 -15 40 -15 29 0 40 4 40 15 0 11 -11 15 -40 15
-29 0 -40 -4 -40 -15z"/>
<path d="M6980 7655 c0 -11 11 -15 40 -15 29 0 40 4 40 15 0 11 -11 15 -40 15
-29 0 -40 -4 -40 -15z"/>
<path d="M7013 7612 c-47 -5 -43 -30 4 -27 21 2 39 7 41 13 4 14 -8 18 -45 14z"/>
<path d="M6472 7537 c-27 -29 -28 -40 -2 -32 18 6 20 2 20 -44 0 -39 4 -51 15
-51 12 0 15 15 15 75 0 83 -10 93 -48 52z"/>
<path d="M6560 7545 c0 -9 9 -15 25 -15 29 0 30 -5 10 -40 -18 -31 -20 -83 -3
-78 7 3 15 18 19 34 3 16 13 43 22 61 25 47 22 53 -28 53 -33 0 -45 -4 -45
-15z"/>
<path d="M6680 7541 c-5 -11 -10 -36 -10 -56 0 -49 16 -75 45 -75 14 0 29 8
35 19 14 27 13 104 -2 119 -18 18 -56 14 -68 -7z m50 -56 c0 -33 -4 -45 -15
-45 -11 0 -15 12 -15 45 0 33 4 45 15 45 11 0 15 -12 15 -45z"/>
<path d="M6980 7545 c0 -11 11 -15 40 -15 29 0 40 4 40 15 0 11 -11 15 -40 15
-29 0 -40 -4 -40 -15z"/>
<path d="M6970 7485 c0 -13 21 -15 125 -15 104 0 125 2 125 15 0 13 -21 15
-125 15 -104 0 -125 -2 -125 -15z"/>
<path d="M6980 7425 c0 -11 11 -15 40 -15 29 0 40 4 40 15 0 11 -11 15 -40 15
-29 0 -40 -4 -40 -15z"/>
<path d="M6985 7381 c-3 -2 -5 -10 -5 -16 0 -15 73 -12 78 3 3 10 -64 22 -73
13z"/>
<path d="M6980 7315 c0 -11 11 -15 40 -15 29 0 40 4 40 15 0 11 -11 15 -40 15
-29 0 -40 -4 -40 -15z"/>
<path d="M6473 7251 c-29 -24 -30 -45 -3 -36 18 6 20 2 20 -39 0 -34 4 -46 15
-46 12 0 15 14 15 70 0 76 -7 84 -47 51z"/>
<path d="M6571 7256 c-7 -8 -11 -36 -9 -62 2 -40 7 -51 27 -61 39 -19 63 0 59
45 -3 32 -7 37 -30 40 -27 3 -35 12 -22 25 3 3 14 1 25 -6 21 -13 34 -5 26 18
-8 19 -60 20 -76 1z m52 -69 c3 -8 1 -20 -4 -28 -11 -19 -34 3 -26 25 8 20 23
21 30 3z"/>
<path d="M6682 7258 c-19 -19 -15 -102 6 -121 39 -36 72 -7 72 62 0 51 -12 71
-45 71 -12 0 -26 -5 -33 -12z m46 -64 c-2 -22 -7 -39 -13 -39 -12 0 -19 60
-10 83 10 28 27 -3 23 -44z"/>
<path d="M6980 7255 c0 -11 11 -15 40 -15 29 0 40 4 40 15 0 11 -11 15 -40 15
-29 0 -40 -4 -40 -15z"/>
<path d="M6970 7195 c0 -13 21 -15 125 -15 104 0 125 2 125 15 0 13 -21 15
-125 15 -104 0 -125 -2 -125 -15z"/>
<path d="M6980 7142 c0 -20 45 -28 69 -13 22 14 3 31 -35 31 -26 0 -34 -4 -34
-18z"/>
<path d="M6980 7085 c0 -11 11 -15 40 -15 29 0 40 4 40 15 0 11 -11 15 -40 15
-29 0 -40 -4 -40 -15z"/>
<path d="M6980 7025 c0 -11 11 -15 40 -15 29 0 40 4 40 15 0 11 -11 15 -40 15
-29 0 -40 -4 -40 -15z"/>
<path d="M6477 6966 c-32 -26 -38 -53 -7 -36 19 10 20 8 20 -40 0 -38 4 -50
15 -50 12 0 15 14 15 69 0 39 -3 72 -8 74 -4 3 -19 -5 -35 -17z"/>
<path d="M6686 6971 c-19 -21 -21 -102 -4 -119 7 -7 21 -12 33 -12 12 0 26 5
33 12 13 13 16 96 4 114 -13 20 -50 23 -66 5z m42 -67 c-2 -22 -7 -39 -13 -39
-12 0 -19 60 -10 83 10 28 27 -3 23 -44z"/>
<path d="M6985 6980 c-11 -18 10 -32 41 -28 40 4 38 32 -3 36 -17 2 -34 -2
-38 -8z"/>
<path d="M6566 6949 c-9 -49 -8 -51 24 -44 27 6 30 4 30 -19 0 -30 -3 -31 -30
-14 -24 15 -37 4 -20 -17 16 -19 54 -19 69 -1 20 24 9 69 -19 83 l-25 13 28 0
c17 0 27 5 27 15 0 11 -11 15 -39 15 -35 0 -39 -3 -45 -31z"/>
<path d="M6970 6915 c0 -13 21 -15 125 -15 104 0 125 2 125 15 0 13 -21 15
-125 15 -104 0 -125 -2 -125 -15z"/>
<path d="M6980 6855 c0 -11 11 -15 40 -15 29 0 40 4 40 15 0 11 -11 15 -40 15
-29 0 -40 -4 -40 -15z"/>
<path d="M6980 6795 c0 -11 11 -15 40 -15 29 0 40 4 40 15 0 11 -11 15 -40 15
-29 0 -40 -4 -40 -15z"/>
<path d="M6980 6740 c0 -18 46 -25 69 -11 22 14 2 32 -35 29 -23 -1 -34 -7
-34 -18z"/>
<path d="M6472 6677 c-27 -29 -28 -40 -2 -32 18 6 20 2 20 -44 0 -39 4 -51 15
-51 12 0 15 15 15 75 0 83 -10 93 -48 52z"/>
<path d="M6581 6652 c-39 -61 -39 -72 -1 -72 20 0 30 -5 30 -15 0 -8 7 -15 15
-15 8 0 15 7 15 15 0 8 5 15 10 15 6 0 10 7 10 15 0 8 -4 15 -10 15 -5 0 -10
20 -10 45 0 60 -19 59 -59 -3z m25 -39 c-10 -10 -19 5 -10 18 6 11 8 11 12 0
2 -7 1 -15 -2 -18z"/>
<path d="M6686 6684 c-18 -18 -21 -85 -6 -115 6 -11 21 -19 35 -19 29 0 45 26
45 75 0 67 -37 97 -74 59z m44 -59 c0 -33 -4 -45 -15 -45 -11 0 -15 12 -15 45
0 33 4 45 15 45 11 0 15 -12 15 -45z"/>
<path d="M6980 6685 c0 -11 11 -15 40 -15 29 0 40 4 40 15 0 11 -11 15 -40 15
-29 0 -40 -4 -40 -15z"/>
<path d="M6970 6625 c0 -13 21 -15 125 -15 104 0 125 2 125 15 0 13 -21 15
-125 15 -104 0 -125 -2 -125 -15z"/>
<path d="M6980 6565 c0 -11 11 -15 40 -15 29 0 40 4 40 15 0 11 -11 15 -40 15
-29 0 -40 -4 -40 -15z"/>
<path d="M6987 6523 c-18 -17 -5 -33 27 -33 38 0 57 17 35 31 -17 10 -53 12
-62 2z"/>
<path d="M6980 6455 c0 -11 11 -15 40 -15 29 0 40 4 40 15 0 11 -11 15 -40 15
-29 0 -40 -4 -40 -15z"/>
<path d="M6473 6391 c-29 -24 -30 -45 -3 -36 18 6 20 2 20 -39 0 -34 4 -46 15
-46 12 0 15 14 15 70 0 76 -7 84 -47 51z"/>
<path d="M6566 6394 c-9 -23 1 -30 24 -16 23 14 36 -1 15 -18 -19 -16 -19 -30
0 -30 8 0 15 -9 15 -20 0 -11 -7 -20 -15 -20 -8 0 -15 5 -15 10 0 6 -7 10 -16
10 -9 0 -14 -7 -12 -17 2 -14 13 -18 43 -18 34 0 40 3 43 24 2 13 -1 28 -6 33
-7 7 -7 16 1 28 8 14 8 22 -2 34 -18 21 -67 21 -75 0z"/>
<path d="M6682 6398 c-7 -7 -12 -33 -12 -59 0 -37 5 -51 21 -63 22 -15 48 -11
61 8 12 18 9 101 -4 114 -7 7 -21 12 -33 12 -12 0 -26 -5 -33 -12z m46 -64
c-2 -22 -7 -39 -13 -39 -12 0 -19 60 -10 83 10 28 27 -3 23 -44z"/>
<path d="M6980 6395 c0 -11 11 -15 40 -15 29 0 40 4 40 15 0 11 -11 15 -40 15
-29 0 -40 -4 -40 -15z"/>
<path d="M6970 6335 c0 -13 21 -15 125 -15 104 0 125 2 125 15 0 13 -21 15
-125 15 -104 0 -125 -2 -125 -15z"/>
<path d="M6980 6274 c0 -11 9 -14 37 -12 52 4 56 28 4 28 -30 0 -41 -4 -41
-16z"/>
<path d="M6980 6225 c0 -11 11 -15 40 -15 29 0 40 4 40 15 0 11 -11 15 -40 15
-29 0 -40 -4 -40 -15z"/>
<path d="M6980 6165 c0 -11 11 -15 40 -15 29 0 40 4 40 15 0 11 -11 15 -40 15
-29 0 -40 -4 -40 -15z"/>
<path d="M6473 6105 c-30 -29 -31 -50 -3 -35 19 10 20 8 20 -40 0 -38 4 -50
15 -50 12 0 15 15 15 75 0 82 -8 90 -47 50z"/>
<path d="M6583 6120 c-26 -10 -31 -40 -8 -40 8 0 15 5 15 10 0 6 7 10 15 10
22 0 18 -24 -6 -46 -12 -10 -27 -31 -35 -46 l-15 -28 51 0 c38 0 50 4 50 15 0
9 -9 15 -25 15 l-24 0 24 25 c30 29 33 70 6 85 -22 11 -19 11 -48 0z"/>
<path d="M6687 6112 c-20 -22 -23 -102 -5 -120 7 -7 21 -12 33 -12 33 0 45 20
45 71 0 70 -37 101 -73 61z m41 -68 c-2 -22 -7 -39 -13 -39 -12 0 -19 60 -10
83 10 28 27 -3 23 -44z"/>
<path d="M6985 6121 c-3 -2 -5 -9 -5 -15 0 -14 73 -12 77 1 4 11 -63 23 -72
14z"/>
<path d="M6970 6055 c0 -13 21 -15 125 -15 104 0 125 2 125 15 0 13 -21 15
-125 15 -104 0 -125 -2 -125 -15z"/>
<path d="M6980 5995 c0 -11 11 -15 40 -15 29 0 40 4 40 15 0 11 -11 15 -40 15
-29 0 -40 -4 -40 -15z"/>
<path d="M6980 5935 c0 -11 11 -15 40 -15 29 0 40 4 40 15 0 11 -11 15 -40 15
-29 0 -40 -4 -40 -15z"/>
<path d="M6980 5878 c0 -16 6 -19 38 -16 25 2 37 8 37 18 0 10 -11 15 -37 16
-31 1 -38 -2 -38 -18z"/>
<path d="M6483 5817 c-28 -28 -29 -41 -3 -34 18 5 20 0 20 -44 0 -37 4 -49 15
-49 12 0 15 15 15 75 0 82 -8 91 -47 52z"/>
<path d="M6582 5815 c-22 -22 -16 -45 8 -30 6 4 10 -13 10 -44 0 -39 4 -51 15
-51 12 0 15 15 15 75 0 82 -8 90 -48 50z"/>
<path d="M6680 5821 c-15 -30 -12 -97 6 -115 37 -37 74 -5 74 63 0 26 -5 52
-12 59 -18 18 -56 14 -68 -7z m50 -56 c0 -33 -4 -45 -15 -45 -11 0 -15 12 -15
45 0 33 4 45 15 45 11 0 15 -12 15 -45z"/>
<path d="M6980 5825 c0 -11 11 -15 40 -15 29 0 40 4 40 15 0 11 -11 15 -40 15
-29 0 -40 -4 -40 -15z"/>
<path d="M6970 5765 c0 -13 21 -15 125 -15 104 0 125 2 125 15 0 13 -21 15
-125 15 -104 0 -125 -2 -125 -15z"/>
<path d="M6980 5705 c0 -11 11 -15 40 -15 29 0 40 4 40 15 0 11 -11 15 -40 15
-29 0 -40 -4 -40 -15z"/>
<path d="M6980 5644 c0 -11 9 -14 37 -12 52 4 56 28 4 28 -30 0 -41 -4 -41
-16z"/>
<path d="M6980 5595 c0 -11 11 -15 40 -15 29 0 40 4 40 15 0 11 -11 15 -40 15
-29 0 -40 -4 -40 -15z"/>
<path d="M6473 5531 c-29 -24 -30 -45 -3 -36 18 6 20 2 20 -39 0 -34 4 -46 15
-46 12 0 15 14 15 70 0 76 -7 84 -47 51z"/>
<path d="M6572 5538 c-18 -18 -15 -103 4 -122 19 -20 24 -20 52 0 17 12 22 25
22 63 0 51 -12 71 -45 71 -12 0 -26 -5 -33 -12z m46 -64 c-2 -22 -7 -39 -13
-39 -12 0 -19 60 -10 83 10 28 27 -3 23 -44z"/>
<path d="M6682 5538 c-18 -18 -15 -103 5 -119 18 -16 54 -13 65 5 12 18 9 101
-4 114 -7 7 -21 12 -33 12 -12 0 -26 -5 -33 -12z m46 -64 c-2 -22 -7 -39 -13
-39 -12 0 -19 60 -10 83 10 28 27 -3 23 -44z"/>
<path d="M6980 5535 c0 -11 11 -15 40 -15 29 0 40 4 40 15 0 11 -11 15 -40 15
-29 0 -40 -4 -40 -15z"/>
<path d="M6980 5489 c-30 -19 14 -29 128 -29 93 0 112 3 112 15 0 11 -13 15
-47 16 -27 1 -77 3 -113 5 -36 2 -72 -1 -80 -7z"/>
<path d="M6980 5425 c0 -11 11 -15 40 -15 29 0 40 4 40 15 0 11 -11 15 -40 15
-29 0 -40 -4 -40 -15z"/>
<path d="M6980 5365 c0 -11 11 -15 40 -15 29 0 40 4 40 15 0 11 -11 15 -40 15
-29 0 -40 -4 -40 -15z"/>
<path d="M6980 5305 c0 -11 11 -15 40 -15 29 0 40 4 40 15 0 11 -11 15 -40 15
-29 0 -40 -4 -40 -15z"/>
<path d="M6578 5259 c-12 -6 -18 -22 -18 -45 0 -30 4 -35 30 -40 17 -4 30 -10
30 -14 0 -15 -13 -18 -31 -7 -21 13 -34 5 -26 -18 4 -9 19 -15 36 -15 37 0 51
23 51 79 0 30 -6 44 -22 55 -26 19 -27 19 -50 5z m39 -35 c8 -22 -15 -44 -26
-25 -10 16 -4 41 10 41 5 0 12 -7 16 -16z"/>
<path d="M6686 5254 c-19 -19 -22 -104 -4 -122 7 -7 21 -12 33 -12 33 0 45 20
45 71 0 48 -18 79 -45 79 -7 0 -21 -7 -29 -16z m42 -61 c-3 -55 -21 -65 -26
-15 -4 39 3 62 18 62 7 0 10 -18 8 -47z"/>
<path d="M6980 5244 c0 -11 9 -14 37 -12 52 4 56 28 4 28 -30 0 -41 -4 -41
-16z"/>
<path d="M6970 5195 c0 -13 21 -15 125 -15 104 0 125 2 125 15 0 13 -21 15
-125 15 -104 0 -125 -2 -125 -15z"/>
<path d="M6980 5135 c0 -11 11 -15 40 -15 29 0 40 4 40 15 0 11 -11 15 -40 15
-29 0 -40 -4 -40 -15z"/>
<path d="M6980 5075 c0 -11 11 -15 40 -15 29 0 40 4 40 15 0 11 -11 15 -40 15
-29 0 -40 -4 -40 -15z"/>
<path d="M6980 5020 c0 -13 8 -17 38 -16 26 1 37 6 37 16 0 10 -11 15 -37 16
-30 1 -38 -3 -38 -16z"/>
<path d="M6573 4968 c-14 -17 -14 -110 -1 -125 14 -17 53 -17 66 0 12 14 11
105 -1 125 -5 6 -19 12 -31 12 -13 0 -28 -6 -33 -12z m42 -38 c-5 -8 -11 -8
-17 -2 -6 6 -7 16 -3 22 5 8 11 8 17 2 6 -6 7 -16 3 -22z m5 -50 c0 -11 -7
-20 -15 -20 -8 0 -15 9 -15 20 0 11 7 20 15 20 8 0 15 -9 15 -20z"/>
<path d="M6680 4961 c-15 -30 -12 -97 6 -115 35 -35 74 -6 74 55 0 53 -15 79
-45 79 -14 0 -29 -8 -35 -19z m50 -56 c0 -33 -4 -45 -15 -45 -11 0 -15 12 -15
45 0 33 4 45 15 45 11 0 15 -12 15 -45z"/>
<path d="M6980 4965 c0 -11 11 -15 40 -15 29 0 40 4 40 15 0 11 -11 15 -40 15
-29 0 -40 -4 -40 -15z"/>
<path d="M6970 4905 c0 -13 21 -15 125 -15 104 0 125 2 125 15 0 13 -21 15
-125 15 -104 0 -125 -2 -125 -15z"/>
<path d="M6980 4845 c0 -11 11 -15 40 -15 29 0 40 4 40 15 0 11 -11 15 -40 15
-29 0 -40 -4 -40 -15z"/>
<path d="M6980 4790 c0 -13 8 -17 38 -16 26 1 37 6 37 16 0 10 -11 15 -37 16
-30 1 -38 -3 -38 -16z"/>
<path d="M6810 3240 c0 -1458 -1 -1541 -17 -1546 -104 -34 -187 -104 -230
-193 -23 -47 -27 -70 -28 -141 0 -77 3 -92 33 -152 35 -71 87 -124 157 -161
61 -32 202 -36 277 -7 76 28 149 98 184 175 40 87 40 195 0 283 -36 77 -115
154 -187 179 l-49 18 0 1542 0 1543 -70 0 -70 0 0 -1540z"/>
<path d="M6980 4735 c0 -11 11 -15 40 -15 29 0 40 4 40 15 0 11 -11 15 -40 15
-29 0 -40 -4 -40 -15z"/>
<path d="M6560 4675 c0 -9 9 -15 25 -15 29 0 29 0 10 -36 -18 -35 -20 -77 -3
-72 6 2 17 25 25 51 7 25 18 49 23 52 6 3 10 13 10 21 0 10 -12 14 -45 14 -33
0 -45 -4 -45 -15z"/>
<path d="M6682 4678 c-7 -7 -12 -33 -12 -60 0 -40 4 -50 25 -64 24 -16 27 -16
45 1 15 13 20 31 20 65 0 50 -13 70 -45 70 -12 0 -26 -5 -33 -12z m46 -64 c-2
-22 -7 -39 -13 -39 -12 0 -19 60 -10 83 10 28 27 -3 23 -44z"/>
<path d="M6980 4675 c0 -11 11 -15 40 -15 29 0 40 4 40 15 0 11 -11 15 -40 15
-29 0 -40 -4 -40 -15z"/>
<path d="M7008 4632 c-82 -7 -25 -32 62 -28 25 1 69 3 98 4 34 1 52 6 50 13
-4 11 -133 17 -210 11z"/>
<path d="M6980 4565 c0 -11 11 -15 40 -15 29 0 40 4 40 15 0 11 -11 15 -40 15
-29 0 -40 -4 -40 -15z"/>
<path d="M6980 4505 c0 -11 11 -15 40 -15 29 0 40 4 40 15 0 11 -11 15 -40 15
-29 0 -40 -4 -40 -15z"/>
<path d="M6980 4445 c0 -11 11 -15 40 -15 29 0 40 4 40 15 0 11 -11 15 -40 15
-29 0 -40 -4 -40 -15z"/>
<path d="M6582 4394 c-17 -12 -22 -25 -22 -63 0 -51 12 -71 45 -71 29 0 45 19
45 52 0 29 -24 49 -49 40 -8 -3 -12 1 -9 9 3 8 16 13 32 11 30 -3 35 13 7 28
-25 13 -22 13 -49 -6z m41 -78 c6 -16 -16 -40 -26 -29 -4 3 -7 15 -7 25 0 21
25 24 33 4z"/>
<path d="M6686 4394 c-19 -19 -22 -104 -4 -122 7 -7 21 -12 33 -12 33 0 45 20
45 71 0 48 -18 79 -45 79 -7 0 -21 -7 -29 -16z m42 -61 c-3 -55 -21 -65 -26
-15 -4 39 3 62 18 62 7 0 10 -18 8 -47z"/>
<path d="M6987 4403 c-16 -15 -5 -23 33 -23 22 0 40 4 40 9 0 17 -59 29 -73
14z"/>
<path d="M6970 4335 c0 -13 21 -15 125 -15 104 0 125 2 125 15 0 13 -21 15
-125 15 -104 0 -125 -2 -125 -15z"/>
<path d="M6980 4275 c0 -11 11 -15 40 -15 29 0 40 4 40 15 0 11 -11 15 -40 15
-29 0 -40 -4 -40 -15z"/>
<path d="M6980 4215 c0 -11 11 -15 40 -15 29 0 40 4 40 15 0 11 -11 15 -40 15
-29 0 -40 -4 -40 -15z"/>
<path d="M6980 4159 c0 -12 9 -16 37 -15 51 1 54 23 3 28 -32 3 -40 0 -40 -13z"/>
<path d="M6577 4113 c-3 -5 -8 -23 -12 -42 -7 -32 -6 -33 18 -27 29 7 50 -12
37 -34 -8 -13 -13 -13 -31 -2 -24 15 -34 10 -25 -13 13 -35 78 -27 88 12 8 30
-9 63 -32 63 -11 0 -20 5 -20 10 0 6 11 10 25 10 16 0 25 6 25 15 0 10 -10 15
-34 15 -19 0 -37 -3 -39 -7z"/>
<path d="M6680 4101 c-15 -30 -12 -97 6 -115 35 -35 74 -6 74 55 0 53 -15 79
-45 79 -14 0 -29 -8 -35 -19z m50 -56 c0 -33 -4 -45 -15 -45 -11 0 -15 12 -15
45 0 33 4 45 15 45 11 0 15 -12 15 -45z"/>
<path d="M6980 4105 c0 -11 11 -15 40 -15 29 0 40 4 40 15 0 11 -11 15 -40 15
-29 0 -40 -4 -40 -15z"/>
<path d="M6970 4045 c0 -13 21 -15 125 -15 104 0 125 2 125 15 0 13 -21 15
-125 15 -104 0 -125 -2 -125 -15z"/>
<path d="M6980 3985 c0 -11 11 -15 40 -15 29 0 40 4 40 15 0 11 -11 15 -40 15
-29 0 -40 -4 -40 -15z"/>
<path d="M6980 3935 c0 -11 11 -15 40 -15 29 0 40 4 40 15 0 11 -11 15 -40 15
-29 0 -40 -4 -40 -15z"/>
<path d="M6980 3875 c0 -11 11 -15 40 -15 29 0 40 4 40 15 0 11 -11 15 -40 15
-29 0 -40 -4 -40 -15z"/>
<path d="M6585 3793 c-43 -59 -44 -73 -5 -73 20 0 30 -5 30 -15 0 -8 7 -15 15
-15 8 0 15 6 15 14 0 8 6 17 13 20 10 5 10 7 0 12 -8 3 -13 25 -13 55 0 27 -4
49 -10 49 -5 0 -25 -21 -45 -47z m21 -50 c-11 -11 -17 4 -9 23 7 18 8 18 11 1
2 -10 1 -21 -2 -24z"/>
<path d="M6682 3818 c-7 -7 -12 -33 -12 -59 0 -38 5 -51 22 -63 19 -13 25 -14
43 -2 24 16 34 99 14 122 -14 17 -51 18 -67 2z m46 -64 c-2 -22 -7 -39 -13
-39 -12 0 -19 60 -10 83 10 28 27 -3 23 -44z"/>
<path d="M6980 3815 c0 -11 11 -15 40 -15 29 0 40 4 40 15 0 11 -11 15 -40 15
-29 0 -40 -4 -40 -15z"/>
<path d="M6987 3772 c-10 -2 -16 -9 -14 -15 5 -17 233 -22 242 -6 4 6 1 15 -6
20 -14 8 -186 10 -222 1z"/>
<path d="M6980 3705 c0 -11 11 -15 40 -15 29 0 40 4 40 15 0 11 -11 15 -40 15
-29 0 -40 -4 -40 -15z"/>
<path d="M6980 3645 c0 -11 11 -15 40 -15 29 0 40 4 40 15 0 11 -11 15 -40 15
-29 0 -40 -4 -40 -15z"/>
<path d="M6980 3585 c0 -11 11 -15 40 -15 29 0 40 4 40 15 0 11 -11 15 -40 15
-29 0 -40 -4 -40 -15z"/>
<path d="M6575 3537 c-10 -8 -15 -19 -11 -26 6 -9 11 -9 21 -1 8 7 20 8 26 4
9 -5 7 -11 -7 -21 -18 -13 -18 -15 -1 -24 9 -6 17 -17 17 -25 0 -12 -7 -14
-30 -9 -31 7 -39 -2 -18 -23 16 -16 53 -15 67 1 15 18 7 117 -10 128 -19 12
-32 11 -54 -4z"/>
<path d="M6686 3534 c-19 -19 -22 -104 -4 -122 7 -7 21 -12 33 -12 33 0 45 20
45 71 0 48 -18 79 -45 79 -7 0 -21 -7 -29 -16z m44 -59 c0 -33 -4 -45 -15 -45
-11 0 -15 11 -15 38 0 21 3 42 7 45 16 16 23 4 23 -38z"/>
<path d="M6980 3532 c0 -16 6 -19 38 -17 23 2 37 8 37 16 0 9 -14 15 -37 17
-32 3 -38 0 -38 -16z"/>
<path d="M6970 3475 c0 -13 21 -15 125 -15 104 0 125 2 125 15 0 13 -21 15
-125 15 -104 0 -125 -2 -125 -15z"/>
<path d="M6980 3415 c0 -11 11 -15 40 -15 29 0 40 4 40 15 0 11 -11 15 -40 15
-29 0 -40 -4 -40 -15z"/>
<path d="M6980 3355 c0 -11 11 -15 40 -15 29 0 40 4 40 15 0 11 -11 15 -40 15
-29 0 -40 -4 -40 -15z"/>
<path d="M6980 3298 c0 -13 8 -18 28 -18 15 0 33 4 41 9 22 14 2 32 -35 29
-25 -1 -34 -7 -34 -20z"/>
<path d="M6572 3248 c-14 -14 -16 -38 -3 -38 6 0 13 5 16 10 8 14 35 13 35 -1
0 -6 -16 -29 -36 -51 -19 -22 -34 -41 -32 -43 2 -1 24 -5 51 -8 37 -5 47 -3
47 9 0 9 -10 14 -27 14 l-27 0 27 28 c41 43 32 92 -18 92 -12 0 -26 -5 -33
-12z"/>
<path d="M6682 3248 c-18 -18 -15 -103 4 -122 35 -35 74 -6 74 55 0 22 -5 49
-10 60 -12 21 -50 25 -68 7z m48 -63 c0 -33 -4 -45 -15 -45 -11 0 -15 12 -15
45 0 33 4 45 15 45 11 0 15 -12 15 -45z"/>
<path d="M6980 3245 c0 -11 11 -15 40 -15 29 0 40 4 40 15 0 11 -11 15 -40 15
-29 0 -40 -4 -40 -15z"/>
<path d="M6970 3185 c0 -13 21 -15 125 -15 104 0 125 2 125 15 0 13 -21 15
-125 15 -104 0 -125 -2 -125 -15z"/>
<path d="M6980 3134 c0 -23 63 -33 76 -13 3 6 0 15 -7 20 -20 12 -69 7 -69 -7z"/>
<path d="M6980 3075 c0 -11 11 -15 40 -15 29 0 40 4 40 15 0 11 -11 15 -40 15
-29 0 -40 -4 -40 -15z"/>
<path d="M6980 3015 c0 -11 11 -15 40 -15 29 0 40 4 40 15 0 11 -11 15 -40 15
-29 0 -40 -4 -40 -15z"/>
<path d="M6591 2957 c-25 -28 -30 -57 -6 -37 13 11 15 6 15 -39 0 -39 4 -51
15 -51 12 0 15 14 15 69 0 39 -4 72 -9 75 -4 3 -18 -5 -30 -17z"/>
<path d="M6692 2964 c-18 -12 -22 -25 -22 -64 0 -39 4 -52 22 -64 19 -13 25
-14 43 -2 16 11 20 24 20 66 0 42 -4 55 -20 66 -18 12 -24 11 -43 -2z m36 -70
c-2 -22 -7 -39 -13 -39 -12 0 -19 60 -10 83 10 28 27 -3 23 -44z"/>
<path d="M6980 2955 c0 -11 11 -15 40 -15 29 0 40 4 40 15 0 11 -11 15 -40 15
-29 0 -40 -4 -40 -15z"/>
<path d="M6975 2911 c-4 -7 -4 -15 -1 -18 7 -7 238 -5 245 2 10 11 -10 14
-120 21 -86 5 -118 4 -124 -5z"/>
<path d="M6980 2845 c0 -11 11 -15 40 -15 29 0 40 4 40 15 0 11 -11 15 -40 15
-29 0 -40 -4 -40 -15z"/>
<path d="M6980 2785 c0 -11 11 -15 40 -15 29 0 40 4 40 15 0 11 -11 15 -40 15
-29 0 -40 -4 -40 -15z"/>
<path d="M6980 2725 c0 -11 11 -15 40 -15 29 0 40 4 40 15 0 11 -11 15 -40 15
-29 0 -40 -4 -40 -15z"/>
<path d="M6686 2674 c-18 -18 -21 -85 -6 -115 12 -21 50 -25 68 -7 18 18 15
103 -4 122 -8 9 -22 16 -29 16 -7 0 -21 -7 -29 -16z m44 -59 c0 -33 -4 -45
-15 -45 -11 0 -15 11 -15 38 0 21 3 42 7 45 16 16 23 4 23 -38z"/>
<path d="M6980 2670 c0 -11 10 -15 37 -14 51 1 53 21 3 26 -31 3 -40 0 -40
-12z"/>
<path d="M6970 2615 c0 -13 21 -15 125 -15 104 0 125 2 125 15 0 13 -21 15
-125 15 -104 0 -125 -2 -125 -15z"/>
<path d="M6980 2555 c0 -11 11 -15 40 -15 29 0 40 4 40 15 0 11 -11 15 -40 15
-29 0 -40 -4 -40 -15z"/>
<path d="M6980 2495 c0 -11 11 -15 40 -15 29 0 40 4 40 15 0 11 -11 15 -40 15
-29 0 -40 -4 -40 -15z"/>
<path d="M6987 2454 c-18 -18 -5 -31 31 -30 26 1 37 6 37 16 0 16 -55 27 -68
14z"/>
<path d="M6588 2379 c-23 -24 -25 -47 -3 -29 13 11 15 6 15 -39 0 -39 4 -51
15 -51 12 0 15 14 15 70 0 75 -9 86 -42 49z"/>
<path d="M6686 2378 c-32 -45 -14 -118 29 -118 29 0 45 26 45 74 0 59 -45 86
-74 44z m48 -32 c7 -29 -10 -80 -24 -71 -11 7 -14 88 -4 98 10 10 21 -1 28
-27z"/>
<path d="M6980 2385 c0 -11 11 -15 40 -15 29 0 40 4 40 15 0 11 -11 15 -40 15
-29 0 -40 -4 -40 -15z"/>
<path d="M6970 2325 c0 -13 21 -15 125 -15 104 0 125 2 125 15 0 13 -21 15
-125 15 -104 0 -125 -2 -125 -15z"/>
<path d="M6980 2270 c0 -18 47 -25 70 -10 13 9 13 11 0 20 -23 15 -70 8 -70
-10z"/>
<path d="M6980 2215 c0 -11 11 -15 40 -15 29 0 40 4 40 15 0 11 -11 15 -40 15
-29 0 -40 -4 -40 -15z"/>
<path d="M6980 2155 c0 -11 11 -15 40 -15 29 0 40 4 40 15 0 11 -11 15 -40 15
-29 0 -40 -4 -40 -15z"/>
<path d="M6570 2095 c-16 -19 -5 -34 12 -17 7 7 18 12 25 12 23 0 14 -35 -17
-65 -43 -41 -39 -55 15 -55 25 0 45 5 45 10 0 6 -11 10 -25 10 -14 0 -25 4
-25 8 0 5 11 19 25 32 27 26 32 49 13 68 -17 17 -53 15 -68 -3z"/>
<path d="M6680 2091 c-5 -11 -10 -34 -10 -51 0 -44 17 -70 45 -70 28 0 45 26
45 70 0 44 -17 70 -45 70 -14 0 -29 -8 -35 -19z m54 -26 c8 -33 -3 -75 -20
-75 -10 0 -14 14 -14 50 0 55 23 71 34 25z"/>
<path d="M6980 2095 c0 -11 11 -15 40 -15 29 0 40 4 40 15 0 11 -11 15 -40 15
-29 0 -40 -4 -40 -15z"/>
<path d="M6987 2053 c-10 -3 -16 -10 -14 -16 5 -17 247 -17 247 -1 0 7 -7 15
-16 18 -17 6 -188 5 -217 -1z"/>
<path d="M3950 9230 l0 -90 53 0 c29 0 58 5 65 12 13 13 16 60 5 72 -4 4 -6
22 -4 41 3 40 -18 55 -78 55 l-41 0 0 -90z m81 60 c38 -21 17 -50 -37 -50 -19
0 -24 5 -24 24 0 33 26 44 61 26z m19 -85 c19 -22 -5 -45 -46 -45 -31 0 -34 3
-34 30 0 27 3 30 34 30 18 0 39 -7 46 -15z"/>
<path d="M4135 9295 c-56 -55 -17 -159 60 -159 69 0 106 74 70 143 -25 49 -90
57 -130 16z m93 -11 c27 -18 31 -84 6 -108 -20 -21 -68 -20 -85 0 -21 25 -14
85 11 106 27 22 39 22 68 2z"/>
<path d="M4310 9230 c0 -73 3 -90 15 -90 12 0 15 17 15 90 0 73 -3 90 -15 90
-12 0 -15 -17 -15 -90z"/>
<path d="M4380 9230 l0 -90 55 0 c30 0 55 5 55 10 0 6 -20 10 -45 10 l-45 0 0
80 c0 47 -4 80 -10 80 -6 0 -10 -37 -10 -90z"/>
<path d="M4520 9230 c0 -73 3 -90 15 -90 12 0 15 17 15 90 0 73 -3 90 -15 90
-12 0 -15 -17 -15 -90z"/>
<path d="M4590 9230 c0 -102 17 -124 22 -27 l3 62 43 -62 c61 -89 72 -85 72
28 0 68 -3 90 -12 87 -8 -3 -13 -25 -12 -61 0 -31 -4 -57 -8 -57 -4 0 -26 27
-48 60 -22 33 -45 60 -50 60 -6 0 -10 -39 -10 -90z"/>
<path d="M4803 9308 c-47 -23 -55 -115 -13 -153 24 -22 101 -25 124 -5 9 7 16
28 16 46 0 33 -1 34 -40 34 -22 0 -40 -4 -40 -10 0 -5 12 -10 26 -10 21 0 25
-4 22 -22 -4 -30 -61 -38 -89 -12 -40 36 -11 124 41 124 11 0 29 -9 40 -20 24
-24 30 -25 30 -6 0 40 -66 59 -117 34z"/>
<path d="M5030 9230 c0 -73 3 -90 15 -90 10 0 15 11 15 35 0 34 1 35 39 35 45
0 71 20 71 55 0 34 -36 55 -92 55 l-48 0 0 -90z m101 60 c5 0 9 -11 9 -24 0
-25 -16 -36 -56 -36 -20 0 -24 5 -24 29 0 30 19 43 48 35 8 -2 18 -4 23 -4z"/>
<path d="M5223 9300 c-28 -25 -36 -54 -29 -94 12 -61 70 -90 125 -62 53 28 59
118 10 159 -28 23 -80 22 -106 -3z m96 -26 c25 -32 27 -61 5 -92 -18 -26 -65
-30 -88 -6 -25 24 -21 90 6 108 32 23 54 20 77 -10z"/>
<path d="M5400 9230 c0 -53 4 -90 10 -90 6 0 10 37 10 90 0 53 -4 90 -10 90
-6 0 -10 -37 -10 -90z"/>
<path d="M5460 9230 c0 -72 3 -90 15 -90 10 0 15 16 17 62 l3 63 40 -63 c24
-38 47 -62 58 -62 16 0 17 9 15 87 -2 56 -7 88 -15 90 -8 3 -13 -16 -15 -63
l-3 -68 -44 67 c-60 93 -71 89 -71 -23z"/>
<path d="M5630 9305 c0 -10 10 -15 30 -15 l30 0 0 -75 c0 -54 4 -75 13 -75 9
0 11 19 9 74 l-4 74 28 4 c15 2 29 9 32 16 3 9 -15 12 -67 12 -56 0 -71 -3
-71 -15z"/>
<path d="M3918 8745 c-34 -29 -39 -62 -8 -45 19 10 20 8 20 -50 0 -53 2 -60
20 -60 19 0 20 7 20 90 0 99 -6 106 -52 65z"/>
<path d="M4040 8750 c-15 -15 -20 -33 -20 -75 0 -42 5 -60 20 -75 25 -25 41
-25 71 -1 19 15 23 28 23 74 0 85 -47 124 -94 77z m58 -79 c-2 -34 -7 -47 -20
-49 -15 -3 -18 5 -18 51 0 60 6 73 27 55 9 -7 13 -27 11 -57z"/>
<path d="M4176 8748 c-20 -28 -21 -117 -3 -142 17 -23 63 -24 85 -2 23 23 21
119 -3 146 -24 26 -60 25 -79 -2z m64 -67 c0 -43 -22 -82 -35 -61 -9 14 -9 96
1 111 12 19 34 -13 34 -50z"/>
<path d="M4307 8763 c-11 -11 -8 -48 5 -61 32 -32 80 8 58 48 -10 19 -49 27
-63 13z m43 -28 c0 -8 -7 -15 -15 -15 -16 0 -20 12 -8 23 11 12 23 8 23 -8z"/>
<path d="M4425 8745 c-19 -18 -25 -35 -25 -70 0 -61 24 -85 85 -85 39 0 47 4
57 25 18 40 1 45 -44 13 -28 -20 -52 2 -56 50 -3 37 0 43 24 54 22 10 28 10
39 -5 15 -20 45 -23 45 -4 0 23 -35 47 -69 47 -21 0 -41 -9 -56 -25z"/>
<path d="M5196 8754 c-34 -33 -10 -60 24 -29 15 13 19 14 29 1 10 -12 3 -24
-34 -66 -25 -29 -44 -57 -42 -63 2 -6 29 -11 60 -12 49 -1 57 1 57 17 0 14 -8
18 -32 18 l-32 0 32 33 c53 55 39 117 -27 117 -11 0 -27 -7 -35 -16z"/>
<path d="M5353 8741 c-45 -37 -46 -64 -2 -41 18 10 19 7 19 -54 0 -56 2 -64
18 -60 16 5 18 34 12 177 0 13 -14 7 -47 -22z"/>
<path d="M5478 8758 c-8 -7 -18 -21 -21 -30 -8 -23 18 -24 40 -3 8 8 19 13 24
10 18 -12 8 -39 -32 -82 -22 -24 -39 -49 -36 -56 2 -7 25 -12 60 -12 48 0 57
3 57 18 0 12 -8 17 -31 17 l-31 0 31 35 c37 42 40 78 9 99 -27 19 -49 20 -70
4z"/>
<path d="M5598 8745 c-9 -21 -9 -29 4 -42 24 -23 68 -10 68 20 0 49 -52 64
-72 22z m47 -13 c0 -18 -20 -15 -23 4 -3 10 1 15 10 12 7 -3 13 -10 13 -16z"/>
<path d="M5700 8675 c0 -52 2 -95 4 -95 23 0 36 17 36 46 0 32 2 34 35 34 29
0 35 4 35 21 0 19 -4 21 -35 16 -30 -5 -35 -3 -35 14 0 14 7 19 30 20 51 2 55
4 55 19 0 11 -15 16 -62 18 l-63 3 0 -96z"/>
<path d="M4783 8678 c2 -7 16 -13 32 -13 16 0 30 6 33 13 2 8 -8 12 -33 12
-25 0 -35 -4 -32 -12z"/>
<path d="M4870 8680 c0 -5 11 -10 25 -10 14 0 28 0 32 -1 4 0 9 4 11 10 2 7
-11 11 -32 11 -20 0 -36 -4 -36 -10z"/>
<path d="M4259 8297 c-42 -32 -51 -99 -19 -140 26 -33 62 -41 104 -23 84 35
54 177 -38 176 -17 0 -38 -6 -47 -13z m90 -33 c25 -32 27 -61 5 -92 -18 -26
-65 -30 -88 -6 -23 22 -20 80 4 104 27 27 55 25 79 -6z"/>
<path d="M4420 8220 c0 -73 3 -90 15 -90 11 0 15 11 15 40 l0 40 40 0 c22 0
40 5 40 10 0 6 -18 10 -41 10 -38 0 -40 2 -37 27 3 24 7 26 47 27 26 1 46 6
49 14 3 9 -14 12 -62 12 l-66 0 0 -90z"/>
<path d="M4633 8289 c4 -13 14 -54 24 -91 13 -52 22 -68 35 -68 10 0 18 8 19
18 0 9 8 42 18 72 l17 55 19 -73 c25 -97 42 -93 73 17 12 46 21 86 18 88 -12
12 -26 -12 -37 -63 -12 -51 -29 -82 -29 -51 0 7 -7 37 -15 65 -21 69 -40 68
-61 -5 -24 -84 -26 -84 -44 -14 -8 36 -21 67 -29 69 -10 4 -12 -1 -8 -19z"/>
<path d="M4890 8228 c-18 -46 -34 -86 -37 -90 -2 -5 3 -8 12 -8 8 0 20 11 25
25 8 20 16 25 45 25 29 0 37 -5 45 -25 5 -14 17 -25 26 -25 8 0 14 4 12 8 -1
4 -18 45 -37 90 -18 45 -39 82 -46 82 -8 0 -28 -37 -45 -82z m64 -5 c6 -20 4
-23 -18 -23 -30 0 -29 -2 -15 40 12 34 19 30 33 -17z"/>
<path d="M5010 8300 c0 -5 6 -11 13 -11 6 -1 19 -2 27 -3 11 -1 14 -17 14 -78
-1 -59 2 -78 12 -78 11 0 14 19 14 75 l0 76 30 6 c54 10 32 23 -40 23 -40 0
-70 -4 -70 -10z"/>
<path d="M5170 8220 l0 -90 70 0 c40 0 70 4 70 10 0 6 -25 10 -55 10 -54 0
-55 0 -55 30 0 29 1 30 50 30 28 0 50 5 50 10 0 6 -22 10 -50 10 -47 0 -50 2
-50 25 0 22 4 25 39 25 22 0 46 3 55 6 32 12 3 24 -60 24 l-64 0 0 -90z"/>
<path d="M5340 8220 c0 -53 4 -90 10 -90 6 0 10 11 10 24 0 62 55 65 85 6 9
-17 22 -30 30 -30 21 0 19 15 -8 46 l-23 27 23 23 c28 28 29 38 3 64 -15 15
-33 20 -75 20 l-55 0 0 -90z m113 51 c18 -18 -6 -41 -43 -41 -41 0 -59 22 -39
46 12 14 66 11 82 -5z"/>
<path d="M3820 4080 c0 -73 3 -90 15 -90 11 0 15 11 15 40 l0 40 40 0 c22 0
40 5 40 10 0 6 -18 10 -41 10 -38 0 -40 1 -37 28 3 25 6 27 46 26 28 0 42 4
42 13 0 9 -17 13 -60 13 l-60 0 0 -90z"/>
<path d="M3972 4080 c1 -67 5 -90 15 -90 9 0 13 14 13 40 0 31 4 40 18 40 23
0 34 -9 61 -47 12 -18 29 -33 37 -33 20 0 18 8 -10 45 -24 31 -24 32 -5 48 10
9 19 26 19 36 0 36 -27 51 -91 51 l-59 0 2 -90z m106 61 c8 -5 12 -17 10 -27
-2 -14 -13 -20 -46 -22 -41 -3 -42 -2 -42 27 0 28 3 31 33 31 17 0 38 -4 45
-9z"/>
<path d="M4151 4080 l3 -90 68 0 c39 0 68 4 68 10 0 6 -25 10 -55 10 -54 0
-55 0 -55 30 0 29 1 30 50 30 28 0 50 5 50 10 0 6 -22 10 -50 10 -46 0 -50 2
-50 24 0 23 4 25 52 28 30 2 53 8 56 16 3 9 -15 12 -68 12 l-71 0 2 -90z"/>
<path d="M4320 4080 l0 -90 70 0 c40 0 70 4 70 10 0 6 -25 10 -55 10 -54 0
-55 0 -55 30 0 29 1 30 50 30 28 0 50 5 50 10 0 6 -22 10 -50 10 -48 0 -50 1
-50 28 0 26 2 27 52 27 32 0 53 5 55 13 4 9 -14 12 -66 12 l-71 0 0 -90z"/>
<path d="M4482 4158 c3 -7 22 -14 44 -16 21 -2 40 -5 42 -7 1 -1 -17 -27 -41
-56 -70 -87 -69 -89 18 -89 87 0 102 18 20 22 l-55 3 50 62 c68 84 67 93 -16
93 -47 0 -65 -3 -62 -12z"/>
<path d="M4650 4090 c0 -44 0 -83 -1 -87 0 -4 4 -9 10 -11 7 -2 11 27 11 87 0
54 -4 91 -10 91 -6 0 -10 -33 -10 -80z"/>
<path d="M4710 4080 c0 -65 3 -90 13 -90 8 0 12 18 12 56 0 31 2 57 5 59 3 2
23 -24 45 -56 58 -86 72 -80 74 31 2 74 -1 90 -13 90 -12 0 -16 -15 -18 -67
l-3 -67 -44 67 c-60 93 -71 89 -71 -23z"/>
<path d="M4914 4147 c-48 -41 -31 -136 28 -156 31 -11 56 -8 87 9 15 8 21 21
21 45 0 34 -1 35 -40 35 -22 0 -40 -4 -40 -10 0 -5 14 -10 30 -10 18 0 30 -5
30 -13 0 -40 -67 -50 -101 -16 -17 17 -20 29 -15 58 9 59 64 82 101 41 10 -11
22 -20 27 -20 14 0 9 19 -12 40 -28 28 -82 26 -116 -3z"/>
<path d="M5155 4080 c0 -66 3 -90 12 -90 8 0 13 13 13 35 0 34 1 35 38 35 49
0 75 19 75 55 0 38 -27 55 -88 55 l-50 0 0 -90z m89 60 c27 -10 35 -38 14 -44
-7 -3 -28 -7 -45 -10 -31 -5 -33 -4 -33 23 0 26 9 38 32 40 4 1 18 -3 32 -9z"/>
<path d="M5342 4147 c-40 -42 -30 -127 18 -152 29 -15 77 -8 106 16 35 29 24
128 -17 149 -32 18 -84 12 -107 -13z m98 -17 c42 -42 15 -120 -41 -120 -39 0
-63 38 -55 85 11 54 59 72 96 35z"/>
<path d="M5520 4080 c0 -73 3 -90 15 -90 12 0 15 17 15 90 0 73 -3 90 -15 90
-12 0 -15 -17 -15 -90z"/>
<path d="M5580 4080 c0 -73 3 -90 15 -90 12 0 15 14 15 67 l0 68 45 -68 c63
-93 75 -90 75 23 0 75 -3 90 -15 90 -13 0 -15 -11 -11 -67 6 -77 6 -77 -61 21
-51 72 -63 63 -63 -44z"/>
<path d="M5750 4161 c0 -5 12 -11 28 -13 27 -3 27 -4 30 -80 2 -60 6 -78 17
-78 12 0 15 17 15 81 l0 80 27 -3 c15 -2 28 2 30 10 4 9 -15 12 -71 12 -42 0
-76 -4 -76 -9z"/>
<path d="M4188 3603 c-20 -5 -31 -33 -22 -57 5 -12 16 -16 38 -14 25 2 32 8
34 30 3 29 -20 48 -50 41z m32 -32 c0 -14 -18 -23 -30 -16 -6 4 -8 11 -5 16 8
12 35 12 35 0z"/>
<path d="M4320 3602 c-48 -15 -72 -79 -50 -133 15 -35 37 -49 79 -49 29 0 71
29 71 49 0 21 -33 20 -50 -1 -15 -19 -22 -21 -37 -12 -47 29 -38 114 12 114
14 0 28 -6 31 -14 5 -14 44 -11 44 4 0 25 -67 53 -100 42z"/>
<path d="M5535 3594 c-30 -30 -12 -67 31 -62 25 2 29 7 29 32 0 36 -36 54 -60
30z m45 -23 c0 -14 -18 -23 -30 -16 -6 4 -8 11 -5 16 8 12 35 12 35 0z"/>
<path d="M4040 3585 c-19 -23 -23 -105 -8 -135 19 -35 70 -40 92 -8 20 29 21
107 0 136 -18 26 -65 30 -84 7z m58 -70 c3 -51 -12 -81 -28 -55 -11 17 -13 93
-3 104 16 15 28 -4 31 -49z"/>
<path d="M5262 3588 c-16 -16 -15 -38 1 -38 7 0 18 5 25 12 9 9 15 9 25 -1 10
-10 9 -15 -5 -25 -21 -16 -23 -36 -4 -36 18 0 27 -23 16 -40 -7 -12 -13 -12
-33 -1 -36 19 -51 11 -32 -17 19 -26 66 -30 89 -6 18 17 21 59 7 69 -5 3 -7
21 -4 41 4 25 2 39 -8 45 -20 13 -63 11 -77 -3z"/>
<path d="M5394 3579 c-16 -17 -16 -22 -4 -29 21 -13 27 -12 34 5 7 20 36 19
36 -1 0 -9 -18 -36 -40 -60 -57 -62 -54 -74 21 -74 52 0 60 2 57 18 -3 12 -12
16 -31 14 -34 -4 -34 2 3 45 31 35 38 71 18 91 -19 19 -73 14 -94 -9z"/>
<path d="M5630 3510 c0 -83 1 -90 20 -90 17 0 20 7 20 40 0 39 1 40 35 40 24
0 35 5 35 15 0 10 -11 15 -35 15 -28 0 -35 4 -35 20 0 17 7 20 43 20 32 0 44
4 44 15 0 12 -14 15 -64 15 l-63 0 0 -90z"/>
<path d="M4813 3523 c-44 -6 -42 -23 2 -23 24 0 35 5 35 15 0 8 -1 14 -2 13
-2 0 -18 -3 -35 -5z"/>
<path d="M4870 3515 c0 -10 11 -15 35 -15 36 0 47 13 19 24 -28 11 -54 6 -54
-9z"/>
<path d="M4249 3051 c-21 -22 -29 -39 -29 -66 0 -27 8 -44 29 -66 71 -71 170
2 137 101 -20 63 -89 78 -137 31z m106 -24 c22 -31 18 -65 -10 -93 -41 -41
-95 -13 -95 51 0 68 68 95 105 42z"/>
<path d="M4430 3070 c-16 -10 -9 -172 8 -178 8 -2 12 10 12 40 l0 44 37 0 c20
-1 38 4 40 12 3 8 -8 12 -36 12 -37 0 -41 2 -41 25 0 23 3 25 50 25 28 0 50 5
50 10 0 6 -3 10 -7 11 -73 5 -104 5 -113 -1z"/>
<path d="M4636 3072 c-8 -14 37 -171 51 -177 15 -5 14 -7 41 85 l18 65 18 -72
c16 -66 41 -100 51 -70 17 52 45 171 41 174 -12 12 -24 -11 -36 -67 -7 -33
-16 -60 -20 -60 -4 0 -13 24 -20 54 -7 30 -16 60 -21 67 -13 22 -35 -6 -49
-66 -7 -30 -16 -55 -20 -55 -4 0 -13 27 -20 60 -13 59 -23 79 -34 62z"/>
<path d="M4889 2994 c-34 -90 -35 -97 -21 -102 5 -1 15 11 20 28 9 26 16 30
46 30 28 0 37 -5 48 -27 12 -26 37 -32 30 -8 -15 55 -67 162 -78 162 -8 0 -27
-35 -45 -83z m65 -1 c6 -20 4 -23 -18 -23 -30 0 -29 -2 -15 40 12 34 19 30 33
-17z"/>
<path d="M5022 3073 c-31 -6 -17 -23 19 -23 l30 0 -3 -77 c-2 -54 1 -77 10
-80 9 -4 12 16 12 76 l0 81 31 0 c19 0 29 4 27 12 -4 12 -81 18 -126 11z"/>
<path d="M5182 3072 c-9 -6 -12 -32 -10 -92 l3 -84 64 0 c41 0 66 5 69 12 2 8
-14 12 -52 12 -53 0 -56 1 -56 24 0 22 5 25 47 28 66 4 70 28 4 28 -48 0 -51
2 -51 25 0 23 3 25 50 25 35 0 50 4 50 13 0 16 -97 23 -118 9z"/>
<path d="M5340 2984 c0 -72 3 -95 13 -91 12 4 14 10 16 55 2 36 45 29 70 -12
23 -37 51 -54 51 -31 0 7 -11 26 -24 42 -24 28 -24 29 -5 41 21 13 26 66 8 78
-6 4 -38 8 -70 10 l-59 4 0 -96z m115 41 c0 -16 -8 -21 -42 -23 -40 -3 -43 -2
-43 23 0 25 3 26 43 23 34 -2 42 -7 42 -23z"/>
<path d="M2457 442 c-10 -10 -17 -33 -17 -50 0 -62 67 -94 105 -52 23 25 12
39 -13 17 -45 -41 -90 5 -66 67 7 18 59 22 69 6 12 -20 26 -10 15 10 -14 26
-70 27 -93 2z"/>
<path d="M2580 390 l0 -70 50 0 c28 0 50 5 50 10 0 6 -18 10 -40 10 -33 0 -40
3 -40 20 0 13 7 20 20 21 11 1 25 3 30 4 6 1 15 3 21 4 5 0 7 6 4 11 -4 6 -12
10 -18 9 -34 -4 -57 2 -57 16 0 11 11 15 40 15 22 0 40 5 40 10 0 6 -22 10
-50 10 l-50 0 0 -70z"/>
<path d="M2706 452 c-3 -5 -3 -33 -1 -63 2 -30 4 -57 5 -61 0 -12 80 -9 80 2
0 6 -13 10 -30 10 l-30 0 0 60 c0 54 -10 75 -24 52z"/>
<path d="M2820 445 c-7 -8 -10 -22 -6 -30 5 -13 18 -20 73 -40 7 -2 10 -11 7
-20 -8 -19 -53 -20 -60 0 -8 20 -24 19 -24 0 0 -21 43 -39 73 -31 50 12 41 69
-13 81 -35 8 -48 24 -29 36 20 12 25 11 44 -7 18 -19 30 -13 22 11 -8 20 -70
20 -87 0z"/>
<path d="M2940 390 c0 -40 4 -70 10 -70 6 0 10 30 10 70 0 40 -4 70 -10 70 -6
0 -10 -30 -10 -70z"/>
<path d="M2990 406 c0 -76 35 -105 91 -76 15 9 19 22 19 70 0 77 -18 78 -22 3
-3 -52 -5 -58 -27 -61 -31 -5 -41 12 -41 71 0 26 -4 47 -10 47 -5 0 -10 -24
-10 -54z"/>
<path d="M3137 453 c-4 -3 -7 -17 -7 -29 0 -18 8 -26 40 -35 28 -9 40 -17 38
-28 -5 -23 -36 -26 -59 -5 -25 23 -37 10 -14 -16 34 -37 95 -21 95 25 0 22
-34 45 -65 45 -8 0 -15 7 -15 15 0 18 41 20 58 3 17 -17 28 -2 12 17 -12 15
-71 21 -83 8z"/>
<path d="M6280 390 c0 -40 4 -70 10 -70 6 0 10 14 10 30 0 27 3 30 30 30 17 0
30 5 30 10 0 6 -13 10 -30 10 -23 0 -30 4 -30 20 0 16 7 20 34 20 19 0 38 5
41 10 4 6 -13 10 -44 10 l-51 0 0 -70z"/>
<path d="M6402 408 c-11 -29 -23 -61 -27 -70 -4 -11 -3 -18 4 -18 7 0 15 8 18
18 4 9 11 20 15 23 17 11 56 -3 61 -22 3 -10 11 -19 17 -19 8 0 9 7 5 18 -4 9
-16 41 -27 70 -12 28 -27 52 -34 52 -7 0 -21 -24 -32 -52z m48 -15 c0 -7 -7
-13 -15 -13 -16 0 -19 9 -9 35 5 13 8 14 15 3 5 -7 9 -19 9 -25z"/>
<path d="M6510 390 c0 -40 4 -70 10 -70 6 0 10 16 10 35 0 33 2 35 35 35 33 0
35 -2 35 -35 0 -19 5 -35 10 -35 6 0 10 30 10 70 0 40 -4 70 -10 70 -5 0 -10
-11 -10 -25 0 -22 -4 -25 -35 -25 -31 0 -35 3 -35 25 0 14 -4 25 -10 25 -6 0
-10 -30 -10 -70z"/>
<path d="M6650 390 c0 -40 4 -70 10 -70 6 0 10 14 10 30 0 41 27 40 62 -2 32
-40 49 -31 19 10 -18 25 -19 31 -6 36 20 7 19 52 -1 60 -9 3 -33 6 -55 6 l-39
0 0 -70z m88 31 c-2 -10 -15 -17 -36 -19 -26 -3 -32 0 -32 17 0 22 14 29 48
23 15 -3 22 -10 20 -21z"/>
<path d="M6790 390 l0 -70 50 0 c28 0 50 5 50 10 0 6 -18 10 -40 10 -33 0 -40
4 -40 19 0 20 18 31 51 31 10 0 19 5 19 10 0 6 -16 10 -35 10 -24 0 -35 5 -35
15 0 11 11 15 40 15 22 0 40 5 40 10 0 6 -22 10 -50 10 l-50 0 0 -70z"/>
<path d="M6910 390 c0 -81 18 -95 22 -18 l3 53 34 -53 c18 -28 37 -52 42 -52
5 0 9 32 9 70 0 78 -17 96 -22 23 l-3 -48 -28 48 c-42 69 -57 63 -57 -23z"/>
<path d="M7050 390 c0 -40 4 -70 10 -70 6 0 10 16 10 35 0 33 2 35 35 35 33 0
35 -2 35 -35 0 -19 5 -35 10 -35 6 0 10 30 10 70 0 68 -15 98 -22 43 -3 -24
-8 -28 -33 -28 -25 0 -30 4 -33 28 -7 55 -22 25 -22 -43z"/>
<path d="M7190 390 l0 -70 50 0 c28 0 50 5 50 10 0 6 -18 10 -40 10 -36 0 -40
3 -40 24 0 13 6 24 13 23 35 -1 57 4 57 14 0 7 -12 9 -35 5 -31 -6 -35 -4 -35
14 0 17 6 20 40 20 22 0 40 5 40 10 0 6 -22 10 -50 10 l-50 0 0 -70z"/>
<path d="M7320 390 c0 -40 4 -70 10 -70 6 0 10 30 10 70 0 40 -4 70 -10 70 -6
0 -10 -30 -10 -70z"/>
<path d="M7360 450 c0 -5 9 -10 20 -10 18 0 20 -7 20 -60 0 -33 4 -60 10 -60
6 0 10 27 10 60 0 57 1 60 25 60 14 0 25 5 25 10 0 6 -25 10 -55 10 -30 0 -55
-4 -55 -10z"/>
</g>
</svg>
